<mxfile host="app.diagrams.net" agent="Mozilla/5.0 (Windows NT 10.0; Win64; x64) AppleWebKit/537.36 (KHTML, like Gecko) Chrome/137.0.0.0 Safari/537.36 Edg/137.0.0.0" version="27.1.4">
  <diagram name="Page-1" id="IhgbCYOcMPkGsroUWeIR">
    <mxGraphModel grid="1" page="1" gridSize="10" guides="1" tooltips="1" connect="1" arrows="0" fold="1" pageScale="1" pageWidth="850" pageHeight="1100" background="light-dark(#ffffff, #121212)" math="0" shadow="0">
      <root>
        <mxCell id="0" />
        <mxCell id="1" parent="0" />
        <mxCell id="puoziL-ow-PrvOYHI_SC-1" value="" style="shape=image;verticalLabelPosition=bottom;labelBackgroundColor=default;verticalAlign=top;aspect=fixed;imageAspect=0;image=https://www.epal.pk/wp-content/uploads/2018/02/MT3608-Pakistan.jpg;rotation=90;connectable=0;" vertex="1" parent="1">
          <mxGeometry x="657.5" y="460" width="95" height="95" as="geometry" />
        </mxCell>
        <mxCell id="zjPIbA5Rt3MyUWwcl-64-1" value="" style="shape=image;verticalLabelPosition=bottom;labelBackgroundColor=default;verticalAlign=top;aspect=fixed;imageAspect=0;image=https://cdn.ecommercedns.uk/files/2/258392/1/40083751/18650-3-7v-1200mah-battery.jpg;connectable=0;rotation=-45;" vertex="1" parent="1">
          <mxGeometry x="660" y="609.6" width="120" height="90.4" as="geometry" />
        </mxCell>
        <mxCell id="zjPIbA5Rt3MyUWwcl-64-35" value="" style="endArrow=none;html=1;rounded=0;shadow=0;flowAnimation=0;" edge="1" parent="1">
          <mxGeometry width="50" height="50" relative="1" as="geometry">
            <mxPoint x="740" y="540" as="sourcePoint" />
            <mxPoint x="730" y="590" as="targetPoint" />
          </mxGeometry>
        </mxCell>
        <mxCell id="zjPIbA5Rt3MyUWwcl-64-52" value="3.7V" style="text;html=1;align=center;verticalAlign=middle;whiteSpace=wrap;rounded=0;" vertex="1" parent="1">
          <mxGeometry x="670" y="550" width="60" height="30" as="geometry" />
        </mxCell>
        <mxCell id="zjPIbA5Rt3MyUWwcl-64-53" value="5V" style="text;html=1;align=center;verticalAlign=middle;whiteSpace=wrap;rounded=0;" vertex="1" parent="1">
          <mxGeometry x="628" y="492.5" width="60" height="30" as="geometry" />
        </mxCell>
        <mxCell id="zjPIbA5Rt3MyUWwcl-64-54" value="" style="endArrow=classic;html=1;rounded=0;entryX=0.658;entryY=1.033;entryDx=0;entryDy=0;exitX=0.25;exitY=0;exitDx=0;exitDy=0;entryPerimeter=0;" edge="1" parent="1" source="zjPIbA5Rt3MyUWwcl-64-52" target="zjPIbA5Rt3MyUWwcl-64-53">
          <mxGeometry width="50" height="50" relative="1" as="geometry">
            <mxPoint x="760" y="570" as="sourcePoint" />
            <mxPoint x="810" y="520" as="targetPoint" />
          </mxGeometry>
        </mxCell>
        <mxCell id="zjPIbA5Rt3MyUWwcl-64-59" value="&lt;div style=&quot;&quot;&gt;&lt;u&gt;USB-C Breakout Board&lt;/u&gt;&lt;/div&gt;&lt;div style=&quot;&quot;&gt;- USB-C port for charging&lt;/div&gt;" style="text;html=1;align=left;verticalAlign=middle;whiteSpace=wrap;rounded=0;" vertex="1" parent="1">
          <mxGeometry x="739" y="860" width="270" height="100" as="geometry" />
        </mxCell>
        <mxCell id="zjPIbA5Rt3MyUWwcl-64-60" value="&lt;div style=&quot;&quot;&gt;&lt;span style=&quot;background-color: transparent; color: light-dark(rgb(0, 0, 0), rgb(255, 255, 255));&quot;&gt;&lt;u&gt;Boost Converter (MT3608)&lt;/u&gt;&lt;/span&gt;&lt;/div&gt;&lt;div style=&quot;&quot;&gt;&lt;span style=&quot;background-color: transparent; color: light-dark(rgb(0, 0, 0), rgb(255, 255, 255));&quot;&gt;- Boosts the voltage&lt;/span&gt;&lt;/div&gt;&lt;div style=&quot;&quot;&gt;&lt;span style=&quot;background-color: transparent; color: light-dark(rgb(0, 0, 0), rgb(255, 255, 255));&quot;&gt;- Maintains a steady 5V&lt;/span&gt;&lt;/div&gt;&lt;div style=&quot;&quot;&gt;&lt;span style=&quot;background-color: transparent; color: light-dark(rgb(0, 0, 0), rgb(255, 255, 255));&quot;&gt;- ~80% efficient&lt;/span&gt;&lt;/div&gt;&lt;div style=&quot;&quot;&gt;&lt;span style=&quot;background-color: transparent; color: light-dark(rgb(0, 0, 0), rgb(255, 255, 255));&quot;&gt;- Rated for 2A&lt;/span&gt;&lt;/div&gt;" style="text;html=1;align=left;verticalAlign=middle;whiteSpace=wrap;rounded=0;" vertex="1" parent="1">
          <mxGeometry x="762.65" y="470" width="167" height="100" as="geometry" />
        </mxCell>
        <mxCell id="zjPIbA5Rt3MyUWwcl-64-63" value="&lt;div style=&quot;&quot;&gt;&lt;u&gt;Battery (18650)&lt;/u&gt;&lt;/div&gt;&lt;div style=&quot;&quot;&gt;- 1 battery (1S config)&lt;/div&gt;&lt;div style=&quot;&quot;&gt;- Built in protection&lt;/div&gt;&lt;div style=&quot;&quot;&gt;- 3300mAh / battery&lt;/div&gt;" style="text;html=1;align=left;verticalAlign=middle;whiteSpace=wrap;rounded=0;connectable=0;" vertex="1" parent="1">
          <mxGeometry x="762.65" y="600" width="270" height="100" as="geometry" />
        </mxCell>
        <mxCell id="zjPIbA5Rt3MyUWwcl-64-64" value="&lt;h1 style=&quot;margin-top: 0px;&quot;&gt;&lt;u&gt;Controller Block Diagram (Version 1)&lt;/u&gt;&lt;/h1&gt;" style="text;html=1;whiteSpace=wrap;overflow=hidden;rounded=0;align=center;" vertex="1" parent="1">
          <mxGeometry x="629" y="70" width="430" height="40" as="geometry" />
        </mxCell>
        <mxCell id="u5fFptdzWCfrkPfdEsxC-2" value="" style="shape=image;verticalLabelPosition=bottom;labelBackgroundColor=default;verticalAlign=top;aspect=fixed;imageAspect=0;image=https://m.media-amazon.com/images/I/617c6sRPU2L._SL1500_.jpg;connectable=0;" vertex="1" parent="1">
          <mxGeometry x="657.5" y="870.5" width="79" height="79" as="geometry" />
        </mxCell>
        <mxCell id="u5fFptdzWCfrkPfdEsxC-6" value="" style="shape=image;verticalLabelPosition=bottom;labelBackgroundColor=default;verticalAlign=top;aspect=fixed;imageAspect=0;image=https://electra.store/wp-content/uploads/2024/11/TP5100-Single-42V-Dual-84V-2A-Lithium-Battery-Charging-Board-1306873-descriptionImage3.jpg;connectable=0;" vertex="1" parent="1">
          <mxGeometry x="665" y="760" width="80" height="80" as="geometry" />
        </mxCell>
        <mxCell id="zjPIbA5Rt3MyUWwcl-64-34" value="" style="endArrow=none;html=1;rounded=0;" edge="1" parent="1">
          <mxGeometry width="50" height="50" relative="1" as="geometry">
            <mxPoint x="700" y="830" as="sourcePoint" />
            <mxPoint x="699" y="890" as="targetPoint" />
          </mxGeometry>
        </mxCell>
        <mxCell id="u5fFptdzWCfrkPfdEsxC-7" value="" style="endArrow=none;html=1;rounded=0;" edge="1" parent="1">
          <mxGeometry width="50" height="50" relative="1" as="geometry">
            <mxPoint x="704.5" y="770" as="sourcePoint" />
            <mxPoint x="704.5" y="710" as="targetPoint" />
          </mxGeometry>
        </mxCell>
        <mxCell id="u5fFptdzWCfrkPfdEsxC-11" value="&lt;div style=&quot;&quot;&gt;&lt;u&gt;Charging Module (TP5100)&lt;/u&gt;&lt;/div&gt;&lt;div style=&quot;&quot;&gt;- Charges batteries in 1S or 2S configuration&lt;/div&gt;&lt;div style=&quot;&quot;&gt;&lt;br&gt;&lt;/div&gt;" style="text;html=1;align=left;verticalAlign=middle;whiteSpace=wrap;rounded=0;" vertex="1" parent="1">
          <mxGeometry x="745" y="760" width="270" height="100" as="geometry" />
        </mxCell>
        <mxCell id="bnljFfp5SAxGdxYjFOsb-1" value="" style="shape=image;verticalLabelPosition=bottom;labelBackgroundColor=default;verticalAlign=top;aspect=fixed;imageAspect=0;image=https://images-cdn.ubuy.co.in/63c8b4bd3bcb4d0aea1a0ef3-aitrip-6pcs-for-esp32-devkitc-core-board.jpg;connectable=0;" vertex="1" parent="1">
          <mxGeometry x="640.97" y="280" width="128.05" height="109.12" as="geometry" />
        </mxCell>
        <mxCell id="bnljFfp5SAxGdxYjFOsb-2" value="" style="endArrow=none;html=1;rounded=0;" edge="1" parent="1">
          <mxGeometry width="50" height="50" relative="1" as="geometry">
            <mxPoint x="690" y="460" as="sourcePoint" />
            <mxPoint x="700" y="380" as="targetPoint" />
          </mxGeometry>
        </mxCell>
        <mxCell id="bnljFfp5SAxGdxYjFOsb-4" value="" style="shape=image;verticalLabelPosition=bottom;labelBackgroundColor=default;verticalAlign=top;aspect=fixed;imageAspect=0;image=https://www.devobox.com/3180-large_default/dual-axis-xy-joystick-module-for-arduino.jpg;flipH=1;connectable=0;" vertex="1" parent="1">
          <mxGeometry x="400" y="270" width="110" height="110" as="geometry" />
        </mxCell>
        <mxCell id="bnljFfp5SAxGdxYjFOsb-5" value="" style="endArrow=none;html=1;rounded=0;" edge="1" parent="1">
          <mxGeometry width="50" height="50" relative="1" as="geometry">
            <mxPoint x="490" y="345" as="sourcePoint" />
            <mxPoint x="660" y="345" as="targetPoint" />
          </mxGeometry>
        </mxCell>
        <mxCell id="bnljFfp5SAxGdxYjFOsb-6" value="&lt;div style=&quot;&quot;&gt;&lt;u&gt;Controller Brain (ESP32 WROOM)&lt;/u&gt;&lt;/div&gt;&lt;div style=&quot;&quot;&gt;&lt;span style=&quot;background-color: transparent; color: light-dark(rgb(0, 0, 0), rgb(255, 255, 255));&quot;&gt;- Send user controls to the tank (WiFi)&lt;/span&gt;&lt;/div&gt;&lt;div style=&quot;&quot;&gt;&lt;span style=&quot;background-color: transparent; color: light-dark(rgb(0, 0, 0), rgb(255, 255, 255));&quot;&gt;- Dual core&lt;/span&gt;&lt;/div&gt;&lt;div style=&quot;&quot;&gt;&lt;span style=&quot;background-color: transparent; color: light-dark(rgb(0, 0, 0), rgb(255, 255, 255));&quot;&gt;- Average 200mA draw&lt;/span&gt;&lt;/div&gt;&lt;div style=&quot;&quot;&gt;&lt;span style=&quot;background-color: transparent; color: light-dark(rgb(0, 0, 0), rgb(255, 255, 255));&quot;&gt;- Max 250mA draw&lt;/span&gt;&lt;/div&gt;" style="text;html=1;align=left;verticalAlign=middle;whiteSpace=wrap;rounded=0;" vertex="1" parent="1">
          <mxGeometry x="739" y="200" width="241" height="100" as="geometry" />
        </mxCell>
        <mxCell id="bnljFfp5SAxGdxYjFOsb-7" value="" style="shape=image;verticalLabelPosition=bottom;labelBackgroundColor=default;verticalAlign=top;aspect=fixed;imageAspect=0;image=https://robotools.in/wp-content/uploads/2022/10/6x6x5mm-Tactile-Push-Button-Switch-4-1.jpg;connectable=0;" vertex="1" parent="1">
          <mxGeometry x="1000" y="380" width="73" height="73" as="geometry" />
        </mxCell>
        <mxCell id="bnljFfp5SAxGdxYjFOsb-10" value="" style="shape=image;verticalLabelPosition=bottom;labelBackgroundColor=default;verticalAlign=top;aspect=fixed;imageAspect=0;image=https://www.pcboard.ca/image/cache/catalog/products/switches/pushbuttons/mini-pb/pushbutton-momentary-red-button-800x800.jpg;connectable=0;" vertex="1" parent="1">
          <mxGeometry x="1050" y="200" width="100" height="100" as="geometry" />
        </mxCell>
        <mxCell id="bnljFfp5SAxGdxYjFOsb-11" value="" style="shape=image;verticalLabelPosition=bottom;labelBackgroundColor=default;verticalAlign=top;aspect=fixed;imageAspect=0;image=https://robotools.in/wp-content/uploads/2022/10/6x6x5mm-Tactile-Push-Button-Switch-4-1.jpg;connectable=0;" vertex="1" parent="1">
          <mxGeometry x="1120" y="380" width="73" height="73" as="geometry" />
        </mxCell>
        <mxCell id="bnljFfp5SAxGdxYjFOsb-12" value="" style="endArrow=none;html=1;rounded=0;" edge="1" parent="1">
          <mxGeometry width="50" height="50" relative="1" as="geometry">
            <mxPoint x="762.65" y="360" as="sourcePoint" />
            <mxPoint x="1020" y="410" as="targetPoint" />
          </mxGeometry>
        </mxCell>
        <mxCell id="bnljFfp5SAxGdxYjFOsb-13" value="" style="endArrow=none;html=1;rounded=0;" edge="1" parent="1">
          <mxGeometry width="50" height="50" relative="1" as="geometry">
            <mxPoint x="768.98" y="350" as="sourcePoint" />
            <mxPoint x="1140" y="410" as="targetPoint" />
          </mxGeometry>
        </mxCell>
        <mxCell id="bnljFfp5SAxGdxYjFOsb-14" value="" style="endArrow=none;html=1;rounded=0;" edge="1" parent="1">
          <mxGeometry width="50" height="50" relative="1" as="geometry">
            <mxPoint x="762.65" y="329.12" as="sourcePoint" />
            <mxPoint x="1090" y="280" as="targetPoint" />
          </mxGeometry>
        </mxCell>
        <mxCell id="bnljFfp5SAxGdxYjFOsb-17" value="&lt;div style=&quot;&quot;&gt;&lt;u&gt;Turret Control Buttons&lt;/u&gt;&lt;/div&gt;&lt;div style=&quot;&quot;&gt;- For moving the tank turret left and right&lt;/div&gt;&lt;div style=&quot;&quot;&gt;- Button switches&lt;/div&gt;" style="text;html=1;align=left;verticalAlign=middle;whiteSpace=wrap;rounded=0;" vertex="1" parent="1">
          <mxGeometry x="1021.5" y="450" width="218.5" height="60" as="geometry" />
        </mxCell>
        <mxCell id="bnljFfp5SAxGdxYjFOsb-18" value="&lt;div style=&quot;&quot;&gt;&lt;u&gt;Fire Button&lt;/u&gt;&lt;/div&gt;&lt;div style=&quot;&quot;&gt;- Push button switch&lt;/div&gt;" style="text;html=1;align=left;verticalAlign=middle;whiteSpace=wrap;rounded=0;" vertex="1" parent="1">
          <mxGeometry x="1136" y="220" width="178.5" height="60" as="geometry" />
        </mxCell>
        <mxCell id="bnljFfp5SAxGdxYjFOsb-19" value="&lt;div style=&quot;&quot;&gt;&lt;u&gt;Joystick Module&lt;/u&gt;&lt;/div&gt;&lt;div style=&quot;&quot;&gt;- For controlling tank movement&lt;/div&gt;&lt;div style=&quot;&quot;&gt;- Tank-style turning&lt;/div&gt;" style="text;html=1;align=left;verticalAlign=middle;whiteSpace=wrap;rounded=0;" vertex="1" parent="1">
          <mxGeometry x="400" y="380" width="218.5" height="60" as="geometry" />
        </mxCell>
        <mxCell id="bnljFfp5SAxGdxYjFOsb-20" value="" style="endArrow=classic;html=1;rounded=0;strokeWidth=3;fillColor=#dae8fc;strokeColor=#6c8ebf;" edge="1" parent="1">
          <mxGeometry width="50" height="50" relative="1" as="geometry">
            <mxPoint x="1120" y="592.5" as="sourcePoint" />
            <mxPoint x="1120" y="522.5" as="targetPoint" />
          </mxGeometry>
        </mxCell>
        <mxCell id="bnljFfp5SAxGdxYjFOsb-21" value="Consider other types of switches that visually imply rotation of a tank turret better.&amp;nbsp;&lt;span style=&quot;background-color: transparent; color: light-dark(rgb(102, 178, 255), rgb(37, 102, 168));&quot;&gt;Perhaps arrows?&lt;/span&gt;&lt;div&gt;&lt;span style=&quot;background-color: transparent; color: light-dark(rgb(102, 178, 255), rgb(37, 102, 168));&quot;&gt;&lt;br&gt;&lt;/span&gt;&lt;/div&gt;&lt;div&gt;&lt;span style=&quot;background-color: transparent; color: light-dark(rgb(102, 178, 255), rgb(37, 102, 168));&quot;&gt;Maybe 3D print a button to go overtop of it. This wouldn&#39;t be very difficult and would allow us to not try and house this tiny button on the surface of the controller. We could house it inside then.&lt;/span&gt;&lt;/div&gt;" style="text;html=1;align=center;verticalAlign=middle;whiteSpace=wrap;rounded=0;fontColor=#66B2FF;fontStyle=1" vertex="1" parent="1">
          <mxGeometry x="966.5" y="600" width="303.5" height="100" as="geometry" />
        </mxCell>
        <mxCell id="bnljFfp5SAxGdxYjFOsb-26" value="" style="shape=image;verticalLabelPosition=bottom;labelBackgroundColor=default;verticalAlign=top;aspect=fixed;imageAspect=0;image=https://technicalhut.in/wp-content/uploads/2021/12/TP4056-1.jpg;" vertex="1" parent="1">
          <mxGeometry x="470" y="792.5" width="115" height="115" as="geometry" />
        </mxCell>
        <mxCell id="bnljFfp5SAxGdxYjFOsb-27" value="" style="strokeWidth=2;html=1;shape=mxgraph.flowchart.annotation_2;align=left;labelPosition=right;pointerEvents=1;flipH=0;fontColor=#66B2FF;strokeColor=#66B2FF;" vertex="1" parent="1">
          <mxGeometry x="578.97" y="760" width="49.03" height="180" as="geometry" />
        </mxCell>
        <mxCell id="bnljFfp5SAxGdxYjFOsb-29" value="&lt;div style=&quot;&quot;&gt;&lt;u&gt;Charging/Protection Module (TP4056)&lt;/u&gt;&lt;/div&gt;&lt;div style=&quot;&quot;&gt;- Micro-USB&lt;/div&gt;&lt;div style=&quot;&quot;&gt;- Charges battery in 1s configuration&lt;/div&gt;&lt;div style=&quot;&quot;&gt;- Protects battery&lt;/div&gt;&lt;div style=&quot;&quot;&gt;* If we go with Tank Version 2, we would need to purchase this extra&lt;/div&gt;" style="text;html=1;align=left;verticalAlign=middle;whiteSpace=wrap;rounded=0;fontColor=#66B2FF;" vertex="1" parent="1">
          <mxGeometry x="260" y="807.5" width="210" height="100" as="geometry" />
        </mxCell>
        <mxCell id="bnljFfp5SAxGdxYjFOsb-30" value="&lt;font&gt;ALTERNATIVE&lt;/font&gt;" style="text;html=1;align=center;verticalAlign=middle;whiteSpace=wrap;rounded=0;fontSize=17;fontStyle=1;fontColor=#66B2FF;" vertex="1" parent="1">
          <mxGeometry x="310" y="767.5" width="140" height="40" as="geometry" />
        </mxCell>
      </root>
    </mxGraphModel>
  </diagram>
</mxfile>
